<svg width="24" height="24" viewBox="0 0 24 24" fill="none" xmlns="http://www.w3.org/2000/svg">
<path d="M3.05004 9.31C3.00753 9.18305 2.99095 9.04887 3.00127 8.91539C3.01159 8.78192 3.0486 8.65187 3.11012 8.53297C3.17163 8.41407 3.2564 8.30873 3.35938 8.22319C3.46237 8.13766 3.58148 8.07368 3.70966 8.03504C3.83783 7.9964 3.97246 7.98389 4.10556 7.99825C4.23866 8.01261 4.36753 8.05355 4.48451 8.11864C4.60149 8.18373 4.70422 8.27165 4.78659 8.37718C4.86896 8.48271 4.9293 8.60371 4.96404 8.733C7.05004 15.719 16.946 15.72 19.034 8.737C19.0715 8.61106 19.1333 8.49373 19.2161 8.3917C19.2989 8.28967 19.4009 8.20494 19.5165 8.14236C19.632 8.07977 19.7587 8.04055 19.8894 8.02693C20.02 8.01332 20.1521 8.02557 20.278 8.063C20.404 8.10042 20.5213 8.16229 20.6233 8.24506C20.7254 8.32784 20.8101 8.42989 20.8727 8.54541C20.9353 8.66092 20.9745 8.78764 20.9881 8.91831C21.0017 9.04898 20.9895 9.18106 20.952 9.307C20.5882 10.5582 19.9711 11.7212 19.139 12.724L20.414 14C20.5962 14.1886 20.697 14.4412 20.6947 14.7034C20.6924 14.9656 20.5873 15.2164 20.4019 15.4018C20.2165 15.5872 19.9656 15.6924 19.7034 15.6947C19.4412 15.697 19.1886 15.5962 19 15.414L17.689 14.103C16.9815 14.6365 16.1999 15.064 15.369 15.372L15.726 16.707C15.7641 16.835 15.7762 16.9694 15.7615 17.1022C15.7467 17.235 15.7056 17.3635 15.6404 17.4801C15.5752 17.5967 15.4873 17.6991 15.3819 17.7811C15.2764 17.8632 15.1557 17.9233 15.0266 17.9579C14.8976 17.9925 14.7629 18.0009 14.6306 17.9827C14.4983 17.9644 14.3709 17.9197 14.2561 17.8514C14.1413 17.7831 14.0414 17.6925 13.9622 17.5849C13.883 17.4773 13.8262 17.3549 13.795 17.225L13.431 15.868C12.484 16.008 11.516 16.008 10.569 15.868L10.205 17.225C10.1739 17.3549 10.1171 17.4773 10.0379 17.5849C9.9587 17.6925 9.85875 17.7831 9.74395 17.8514C9.62914 17.9197 9.50181 17.9644 9.36948 17.9827C9.23714 18.0009 9.10248 17.9925 8.97345 17.9579C8.84442 17.9233 8.72363 17.8632 8.61822 17.7811C8.51281 17.6991 8.42491 17.5967 8.35971 17.4801C8.29451 17.3635 8.25334 17.235 8.23863 17.1022C8.22392 16.9694 8.23596 16.835 8.27404 16.707L8.63104 15.372C7.80009 15.0637 7.01854 14.6358 6.31104 14.102L5.00104 15.414C4.81353 15.6018 4.55911 15.7074 4.29375 15.7076C4.02838 15.7077 3.77381 15.6025 3.58604 15.415C3.39827 15.2275 3.29267 14.9731 3.29248 14.7077C3.2923 14.4423 3.39753 14.1878 3.58504 14L4.86004 12.725C4.07604 11.789 3.45004 10.651 3.04804 9.311L3.05004 9.31Z" fill="#343A40"/>
</svg>
